<svg xmlns="http://www.w3.org/2000/svg" xmlns:xlink="http://www.w3.org/1999/xlink" width="500" zoomAndPan="magnify" viewBox="0 0 375 374.999991" height="500" preserveAspectRatio="xMidYMid meet" version="1.0"><defs><clipPath id="7158b0d3b8"><path d="M 112.5 112.5 L 262.5 112.5 L 262.5 262.5 L 112.5 262.5 Z M 112.5 112.5 " clip-rule="nonzero"/></clipPath></defs><path fill="#24b1e2" d="M 258.644531 165.265625 L 209.734375 165.265625 L 209.734375 116.355469 C 209.734375 114.695312 208.429688 113.390625 206.769531 113.390625 L 168.230469 113.390625 C 166.570312 113.390625 165.265625 114.695312 165.265625 116.355469 L 165.265625 165.265625 L 116.355469 165.265625 C 114.695312 165.265625 113.390625 166.570312 113.390625 168.230469 L 113.390625 206.769531 C 113.390625 208.429688 114.695312 209.734375 116.355469 209.734375 L 165.265625 209.734375 L 165.265625 258.644531 C 165.265625 260.304688 166.570312 261.609375 168.230469 261.609375 L 206.769531 261.609375 C 208.429688 261.609375 209.734375 260.304688 209.734375 258.644531 L 209.734375 209.734375 L 258.644531 209.734375 C 260.304688 209.734375 261.609375 208.429688 261.609375 206.769531 L 261.609375 168.230469 C 261.609375 166.570312 260.304688 165.265625 258.644531 165.265625 Z M 258.644531 165.265625 " fill-opacity="1" fill-rule="nonzero"/><g clip-path="url(#7158b0d3b8)"><path fill="#000000" d="M 206.769531 262.5 L 168.230469 262.5 C 166.097656 262.5 164.378906 260.78125 164.378906 258.644531 L 164.378906 210.621094 L 116.355469 210.621094 C 114.21875 210.621094 112.5 208.902344 112.5 206.769531 L 112.5 168.230469 C 112.5 166.097656 114.21875 164.378906 116.355469 164.378906 L 164.378906 164.378906 L 164.378906 116.355469 C 164.378906 114.21875 166.097656 112.5 168.230469 112.5 L 206.769531 112.5 C 208.902344 112.5 210.621094 114.21875 210.621094 116.355469 L 210.621094 164.378906 L 258.644531 164.378906 C 260.78125 164.378906 262.5 166.097656 262.5 168.230469 L 262.5 206.769531 C 262.5 208.902344 260.78125 210.621094 258.644531 210.621094 L 210.621094 210.621094 L 210.621094 258.644531 C 210.621094 260.78125 208.902344 262.5 206.769531 262.5 Z M 116.355469 166.15625 C 115.226562 166.15625 114.277344 167.105469 114.277344 168.230469 L 114.277344 206.769531 C 114.277344 207.894531 115.226562 208.84375 116.355469 208.84375 L 165.265625 208.84375 C 165.742188 208.84375 166.15625 209.257812 166.15625 209.734375 L 166.15625 258.644531 C 166.15625 259.773438 167.105469 260.722656 168.230469 260.722656 L 206.769531 260.722656 C 207.894531 260.722656 208.84375 259.773438 208.84375 258.644531 L 208.84375 209.734375 C 208.84375 209.257812 209.257812 208.84375 209.734375 208.84375 L 258.644531 208.84375 C 259.773438 208.84375 260.722656 207.894531 260.722656 206.769531 L 260.722656 168.230469 C 260.722656 167.105469 259.773438 166.15625 258.644531 166.15625 L 209.734375 166.15625 C 209.257812 166.15625 208.84375 165.742188 208.84375 165.265625 L 208.84375 116.355469 C 208.84375 115.226562 207.894531 114.277344 206.769531 114.277344 L 168.230469 114.277344 C 167.105469 114.277344 166.15625 115.226562 166.15625 116.355469 L 166.15625 165.265625 C 166.15625 165.742188 165.742188 166.15625 165.265625 166.15625 Z M 116.355469 166.15625 " fill-opacity="1" fill-rule="nonzero"/></g></svg>